<?xml version="1.0" standalone="no"?>
<!DOCTYPE svg PUBLIC "-//W3C//DTD SVG 1.1//EN" "http://www.w3.org/Graphics/SVG/1.1/DTD/svg11.dtd">
<svg t="1598409376115" class="icon" viewBox="0 0 1024 1024" version="1.1" xmlns="http://www.w3.org/2000/svg" p-id="36672" width="128" height="128" xmlns:xlink="http://www.w3.org/1999/xlink"><defs><style type="text/css"></style></defs><path d="M926.865 362.546h-4.040c-52.595 0-95.394-42.8-95.394-95.394 0-11.786 4.284-26.362 8.431-36.163 15.201-34.194 3.531-76.058-27.465-97.684l-119.915-66.923-2.901-1.414c-31.428-13.635-72.294-5.475-95.498 18.673-20.898 21.57-56.464 44.952-76.717 44.952-20.537 0-56.33-23.838-77.269-45.843-23.206-24.378-63.769-32.887-94.868-19.603l-124.203 67.951-3.046 1.923c-31.457 21.846-43.217 63.727-27.902 98.151 4.091 9.551 8.36 23.978 8.36 35.981 0 52.595-42.8 95.394-95.394 95.394h-4.793c-32.808 0-57.948 26.457-65.065 64.356-5.063 26.157-10.221 64.203-10.221 96.184 0 31.93 5.158 69.96 10.24 96.219 7.175 37.978 32.406 64.252 65.764 64.252h4.074c52.595 0 95.394 42.8 95.394 95.394 0 1.485-0.075 3.068-0.224 4.736-0.527 5.894-1.938 12.515-3.97 19.319-1.597 5.347-2.732 8.396-4.368 12.411-15.099 33.906-3.45 75.789 27.474 97.322l117.656 66.164 3.676 1.683c31.081 13.748 72.265 5.074 95.384-20.118 21.378-23.231 58.469-47.785 78.405-47.785 21.091 0 57.752 25.407 78.994 48.779 15.602 17.166 39.106 27.197 63.2 27.197 11.417 0 22.347-2.181 32.347-6.551l121.945-67.124 3.111-1.993c31.31-21.749 43.048-63.631 27.723-98.032-1.291-3.138-2.554-6.512-4.15-11.834-2.099-7.002-3.535-13.824-4.025-19.887-0.121-1.5-0.182-2.931-0.182-4.285 0-52.595 42.8-95.394 95.394-95.394h4.691c32.827 0 58.004-26.44 65.164-64.335 0.439-2.363 1.013-5.569 1.715-9.747 1.162-6.909 2.308-14.334 3.38-22.134 1.969-14.328 3.475-28.365 4.336-41.615 0.52-7.994 0.793-15.56 0.793-22.641 0-7.054-0.271-14.586-0.785-22.541-0.86-13.301-2.369-27.392-4.345-41.774-1.072-7.804-2.218-15.232-3.38-22.142-0.703-4.179-1.277-7.385-1.677-9.54-7.228-38.262-32.492-64.543-65.852-64.543zM889.063 593.434l18.697 3.162-1.546-18.9c-104.641 8.559-185.324 95.987-185.324 201.255 0 24.74 5.88 49.32 14.363 71.515l17.713-6.77-9.171-16.598-102.682 56.733 9.171 16.598 13.715-13.096c-11.3-11.834-25.541-24.882-42.697-37.582-38.678-28.72-76.624-43.644-112.835-43.644-35.837 0-73.477 14.633-111.971 42.835-17.151 12.558-31.574 25.592-42.52 36.973l13.667 13.145 9.256-16.551-98.813-55.261-9.256 16.551 17.679 6.859c8.537-22.005 14.466-46.927 14.466-71.707 0-105.275-80.688-192.697-185.358-201.255l-1.545 18.9 18.697-3.162c-4.195-24.806-7.267-50.689-7.267-70.348 0-19.714 3.071-45.603 7.267-70.417l-18.697-3.162 1.539 18.9c104.663-8.52 185.365-95.969 185.365-201.256 0-24.637-5.902-49.309-14.363-71.447l-17.713 6.77 9.127 16.622 105.25-57.795-9.127-16.622-13.459 13.359c10.957 11.039 25.31 23.681 42.587 35.984 37.92 27.075 74.917 41.111 110.087 41.111 34.784 0 71.496-13.774 109.244-40.328 16.977-11.946 27.702-21.23 42.138-34.87l-13.024-13.783-9.204 16.58 101.278 56.22 9.204-16.58-17.683-6.848c-8.463 21.853-14.427 46.754-14.427 71.628 0 105.281 80.696 192.735 185.33 201.256l1.539-18.9-18.699 3.155c4.231 25.077 7.303 50.871 7.303 70.424 0 19.627-3.059 45.265-7.301 70.348z" p-id="36673"></path><path d="M322.371 509.616c0 103.26 83.986 187.246 187.246 187.246 103.26 0 187.246-83.986 187.246-187.246 0-103.26-83.986-187.246-187.246-187.246-103.26 0-187.246 83.986-187.246 187.246zM509.617 590.322c-44.48 0-80.706-36.226-80.706-80.706 0-44.45 36.23-80.672 80.706-80.672 44.476 0 80.706 36.221 80.706 80.672 0 44.48-36.226 80.706-80.706 80.706z" p-id="36674"></path></svg>