<?xml version="1.0" standalone="no"?><!DOCTYPE svg PUBLIC "-//W3C//DTD SVG 1.1//EN" "http://www.w3.org/Graphics/SVG/1.1/DTD/svg11.dtd"><svg t="1600908733296" class="icon" viewBox="0 0 1024 1024" version="1.1" xmlns="http://www.w3.org/2000/svg" p-id="1162" width="128" height="128" xmlns:xlink="http://www.w3.org/1999/xlink"><defs><style type="text/css"></style></defs><path d="M908.629333 126.634667c-9.102222 0.284444-17.976889 0.455111-26.737777 0.455111-229.546667 0-330.752-101.831111-331.605334-102.855111L527.416889 0l-23.04 24.291556c-0.910222 1.080889-100.124444 102.798222-331.605333 102.798222-8.704 0-17.635556-0.113778-26.737778-0.455111L113.777778 125.553778v461.937778c0 120.945778 41.699556 297.358222 402.204444 432.355555L527.36 1024l11.264-4.209778c360.561778-134.997333 402.261333-311.352889 402.261333-432.355555V125.610667l-32.199111 1.080889zM491.861333 706.958222L284.103111 517.347556l55.182222-45.966223L449.763556 555.235556s152.462222-162.531556 299.804444-238.364445l21.048889 24.348445s-184.092444 157.070222-278.755556 365.681777z" p-id="1163"></path></svg>